<?xml version="1.0" encoding="utf-8"?>
<!-- Generator: Adobe Illustrator 16.0.4, SVG Export Plug-In . SVG Version: 6.00 Build 0)  -->
<!DOCTYPE svg PUBLIC "-//W3C//DTD SVG 1.1//EN" "http://www.w3.org/Graphics/SVG/1.1/DTD/svg11.dtd">
<svg version="1.1" id="Layer_1" xmlns="http://www.w3.org/2000/svg" xmlns:xlink="http://www.w3.org/1999/xlink" x="0px" y="0px"
	 width="194.843px" height="166.912px" viewBox="0 0 194.843 166.912" enable-background="new 0 0 194.843 166.912"
	 xml:space="preserve">
<g>
	<g>
		<g>
			<path fill="#607283" d="M116.239,99.816h-9.305h-8.876h-9.305c0,0,2.22,38.998-11.437,38.998h20.741h8.876h20.741
				C114.019,138.814,116.239,99.816,116.239,99.816z"/>
			<g>
				<path fill="#334A5C" d="M189.82,0H15.172c-2.774,0-5.023,2.249-5.023,5.022v102.909v1.029v7.986
					c0,2.418,1.961,4.379,4.379,4.379h175.936c2.418,0,4.379-1.961,4.379-4.379v-7.986v-1.029V5.022
					C194.843,2.249,192.592,0,189.82,0z"/>
				<rect x="16.139" y="5.796" fill="#FFFFFF" width="172.714" height="92.733"/>
			</g>
			<rect x="16.074" y="97.755" fill="#607283" width="172.844" height="5.408"/>
			<circle fill="#607283" cx="102.496" cy="112.021" r="4.54"/>
		</g>
		<rect x="76.797" y="138.034" fill="#334A5C" width="51.398" height="1.748"/>
	</g>
	<g>
		<g>
			<g>
				<path fill="#334A5C" d="M123.039,78.424H81.954V37.517c0-2.968,2.407-5.375,5.375-5.375h30.335c2.968,0,5.375,2.406,5.375,5.375
					V78.424z"/>
				<rect x="83.14" y="39.625" fill="#FFFFFF" width="38.712" height="37.446"/>
				<g>
					<path fill="#FFD361" d="M87.757,34.678c0.636,0.834-0.307,1.776-1.142,1.142C85.98,34.986,86.923,34.043,87.757,34.678z"/>
					<g>
						<circle fill="#F15544" cx="84.829" cy="35.25" r="0.779"/>
						<path fill="#61C5B8" d="M90.114,34.678c0.636,0.834-0.307,1.776-1.14,1.142C88.337,34.986,89.281,34.043,90.114,34.678z"/>
					</g>
				</g>
				<path fill="#425C6E" d="M119.342,36.337H93.395c-0.598,0-1.086-0.49-1.086-1.087l0,0c0-0.598,0.488-1.087,1.086-1.087h25.947
					c0.599,0,1.087,0.489,1.087,1.087l0,0C120.429,35.847,119.941,36.337,119.342,36.337z"/>
			</g>
			<g>
				<path fill="#334A5C" d="M96.469,51.382l-0.778,0.479c-0.215-0.207-0.455-0.379-0.712-0.514l0.211-0.889
					c0.02-0.082-0.031-0.163-0.112-0.183l-1.216-0.289c-0.082-0.02-0.164,0.031-0.183,0.112l-0.211,0.89
					c-0.292,0.004-0.583,0.05-0.868,0.138l-0.479-0.778c-0.043-0.071-0.137-0.093-0.209-0.049l-1.064,0.656
					c-0.072,0.043-0.093,0.137-0.05,0.208l0.479,0.777c-0.206,0.215-0.379,0.455-0.514,0.712l-0.889-0.211
					c-0.083-0.02-0.164,0.031-0.184,0.113l-0.289,1.216c-0.02,0.082,0.031,0.164,0.112,0.183l0.889,0.211
					c0.005,0.292,0.05,0.583,0.139,0.868l-0.777,0.48c-0.073,0.043-0.094,0.137-0.05,0.208l0.656,1.064
					c0.043,0.071,0.138,0.093,0.209,0.049l0.776-0.479c0.215,0.208,0.456,0.379,0.713,0.514l-0.212,0.89
					c-0.019,0.081,0.031,0.163,0.114,0.182l1.215,0.289c0.081,0.02,0.164-0.031,0.184-0.112l0.211-0.889
					c0.289-0.005,0.582-0.051,0.867-0.139l0.479,0.777c0.043,0.072,0.138,0.094,0.208,0.05l1.064-0.655
					c0.071-0.044,0.094-0.138,0.05-0.209l-0.479-0.777c0.207-0.215,0.378-0.455,0.515-0.712l0.889,0.211
					c0.081,0.02,0.164-0.031,0.183-0.113l0.29-1.216c0.019-0.082-0.031-0.164-0.114-0.183l-0.89-0.211
					c-0.004-0.291-0.049-0.583-0.138-0.868l0.778-0.479c0.071-0.043,0.094-0.137,0.05-0.208l-0.656-1.065
					C96.634,51.36,96.541,51.338,96.469,51.382z M94.518,55.722c-0.892,0.549-2.06,0.271-2.608-0.62
					c-0.549-0.891-0.272-2.059,0.62-2.608c0.892-0.549,2.06-0.271,2.607,0.62C95.687,54.005,95.41,55.173,94.518,55.722z"/>
				<path fill="#334A5C" d="M96.282,45.257l-0.444,0.274c-0.123-0.119-0.26-0.217-0.408-0.294l0.122-0.508
					c0.011-0.046-0.019-0.093-0.065-0.104l-0.694-0.166c-0.047-0.011-0.094,0.018-0.105,0.064l-0.121,0.508
					c-0.167,0.003-0.334,0.029-0.496,0.08l-0.273-0.444c-0.025-0.041-0.079-0.053-0.12-0.028l-0.608,0.375
					c-0.04,0.025-0.052,0.079-0.027,0.12l0.273,0.444c-0.119,0.124-0.216,0.26-0.293,0.408l-0.508-0.122
					c-0.048-0.011-0.094,0.018-0.105,0.065l-0.165,0.695c-0.011,0.046,0.018,0.093,0.064,0.104l0.508,0.12
					c0.004,0.167,0.029,0.333,0.08,0.496l-0.444,0.274c-0.042,0.025-0.054,0.078-0.029,0.12l0.375,0.608
					c0.025,0.042,0.078,0.054,0.12,0.028L93.36,48.1c0.123,0.118,0.26,0.216,0.406,0.294l-0.12,0.508
					c-0.011,0.047,0.018,0.094,0.064,0.105l0.695,0.166c0.046,0.011,0.094-0.018,0.104-0.065l0.121-0.508
					c0.167-0.003,0.333-0.029,0.496-0.079l0.273,0.445c0.025,0.041,0.079,0.053,0.12,0.027l0.608-0.375
					c0.041-0.025,0.053-0.079,0.028-0.12l-0.274-0.444c0.118-0.123,0.217-0.26,0.294-0.407l0.508,0.121
					c0.046,0.011,0.094-0.018,0.105-0.064l0.165-0.695c0.011-0.047-0.019-0.093-0.065-0.104l-0.508-0.121
					c-0.002-0.166-0.029-0.333-0.079-0.496l0.444-0.273c0.04-0.025,0.053-0.079,0.028-0.12L96.4,45.286
					C96.375,45.245,96.322,45.232,96.282,45.257z M95.166,47.739c-0.509,0.313-1.176,0.155-1.491-0.354
					c-0.313-0.51-0.155-1.178,0.355-1.491c0.51-0.314,1.178-0.155,1.491,0.354C95.835,46.757,95.676,47.424,95.166,47.739z"/>
				<path fill="#61C5B8" d="M90.673,45.767l-0.614,0.378c-0.169-0.163-0.359-0.299-0.562-0.406l0.167-0.703
					c0.015-0.064-0.025-0.129-0.09-0.144l-0.961-0.229c-0.063-0.015-0.128,0.024-0.143,0.089l-0.167,0.702
					c-0.23,0.004-0.461,0.04-0.686,0.11l-0.378-0.614c-0.034-0.057-0.109-0.074-0.165-0.04l-0.84,0.518
					c-0.056,0.035-0.074,0.108-0.039,0.165l0.378,0.615c-0.164,0.169-0.299,0.359-0.407,0.562l-0.702-0.167
					c-0.065-0.015-0.129,0.024-0.145,0.089l-0.228,0.961c-0.016,0.064,0.024,0.129,0.089,0.144l0.702,0.167
					c0.004,0.23,0.04,0.459,0.11,0.685l-0.615,0.379c-0.056,0.034-0.074,0.107-0.039,0.165l0.517,0.841
					c0.035,0.056,0.109,0.074,0.167,0.039l0.613-0.378c0.17,0.164,0.36,0.3,0.563,0.406l-0.167,0.704
					c-0.015,0.064,0.025,0.128,0.088,0.144l0.961,0.228c0.064,0.016,0.129-0.024,0.144-0.089l0.167-0.703
					c0.229-0.004,0.459-0.04,0.684-0.109l0.379,0.614c0.035,0.057,0.109,0.074,0.165,0.039l0.842-0.518
					c0.056-0.035,0.074-0.109,0.039-0.165l-0.378-0.615c0.164-0.169,0.3-0.36,0.406-0.563l0.703,0.167
					c0.063,0.016,0.128-0.024,0.143-0.089l0.229-0.961c0.015-0.064-0.023-0.129-0.088-0.145l-0.703-0.167
					c-0.003-0.23-0.039-0.46-0.109-0.685l0.615-0.379c0.056-0.035,0.074-0.108,0.039-0.166l-0.518-0.841
					C90.805,45.75,90.729,45.732,90.673,45.767z M89.133,49.196c-0.705,0.433-1.627,0.214-2.061-0.49
					c-0.434-0.705-0.215-1.627,0.49-2.061c0.705-0.434,1.627-0.215,2.061,0.49C90.057,47.839,89.836,48.762,89.133,49.196z"/>
			</g>
			<g>
				<g>
					<path fill="#CFCFCE" d="M106.539,50.871l-3.236-2.743c-0.34,0.385-1.912,2.16-2.028,2.247l-0.085-0.108
						c0.09-0.069,1.276-1.401,2.053-2.28l0.046-0.052l3.238,2.744l1.84-2.041l1.084,0.92l2.896-2.777l3.83,2.811l3.236-3.59
						l0.106,0.089l-3.33,3.693l-3.83-2.647l-2.895,2.614l-1.085-0.92L106.539,50.871z"/>
				</g>
				
					<ellipse transform="matrix(0.9978 -0.0661 0.0661 0.9978 -3.1024 6.7976)" fill="#414141" cx="101.241" cy="50.312" rx="0.281" ry="0.272"/>
				
					<ellipse transform="matrix(0.9976 -0.0686 0.0686 0.9976 -3.0537 7.1968)" fill="#414141" cx="103.27" cy="48.065" rx="0.281" ry="0.273"/>
				
					<ellipse transform="matrix(0.9978 -0.0661 0.0661 0.9978 -3.1179 7.1427)" fill="#414141" cx="106.451" cy="50.72" rx="0.281" ry="0.273"/>
				
					<ellipse transform="matrix(0.9977 -0.0678 0.0678 0.9977 -3.0508 7.4528)" fill="#414141" cx="108.291" cy="48.679" rx="0.281" ry="0.272"/>
				
					<ellipse transform="matrix(0.9978 -0.0669 0.0669 0.9978 -3.0666 7.4354)" fill="#414141" cx="109.447" cy="49.489" rx="0.281" ry="0.272"/>
				
					<ellipse transform="matrix(0.9978 -0.0669 0.0669 0.9978 -2.884 7.6156)" fill="#414141" cx="112.325" cy="46.891" rx="0.281" ry="0.273"/>
				
					<ellipse transform="matrix(0.9978 -0.066 0.066 0.9978 -2.7772 7.981)" fill="#414141" cx="119.403" cy="46.024" rx="0.281" ry="0.272"/>
				
					<ellipse transform="matrix(0.9978 -0.066 0.066 0.9978 -3.0195 7.7729)" fill="#414141" cx="116.133" cy="49.587" rx="0.281" ry="0.272"/>
			</g>
			<polygon fill="#F15544" points="101.112,56.434 103.803,55.687 105.407,54.948 108.129,56.393 109.68,54.057 112.164,54.321 
				113.778,52.125 116.399,52.713 119.666,51.069 119.666,58.828 101.164,58.828 			"/>
			<g>
				<g>
					<path fill="#CFCFCE" d="M103.836,67.351H85.358c-0.148,0-0.271-0.123-0.271-0.271l0,0c0-0.149,0.123-0.271,0.271-0.271h18.478
						c0.148,0,0.271,0.122,0.271,0.271l0,0C104.107,67.229,103.985,67.351,103.836,67.351z"/>
					<path fill="#CFCFCE" d="M103.836,68.434H85.358c-0.148,0-0.271-0.122-0.271-0.271l0,0c0-0.149,0.123-0.271,0.271-0.271h18.478
						c0.148,0,0.271,0.122,0.271,0.271l0,0C104.107,68.312,103.985,68.434,103.836,68.434z"/>
				</g>
				<g>
					<path fill="#CFCFCE" d="M103.836,71.28H85.358c-0.148,0-0.271-0.121-0.271-0.271l0,0c0-0.149,0.123-0.271,0.271-0.271h18.478
						c0.148,0,0.271,0.122,0.271,0.271l0,0C104.107,71.159,103.985,71.28,103.836,71.28z"/>
					<path fill="#CFCFCE" d="M103.836,72.364H85.358c-0.148,0-0.271-0.122-0.271-0.271l0,0c0-0.148,0.123-0.271,0.271-0.271h18.478
						c0.148,0,0.271,0.122,0.271,0.271l0,0C104.107,72.242,103.985,72.364,103.836,72.364z"/>
				</g>
			</g>
			<path fill="#CFCFCE" d="M117.038,74.416h-6.052c-1.446,0-2.628-1.183-2.628-2.628v-2.952c0-1.446,1.183-2.629,2.628-2.629h6.052
				c1.445,0,2.628,1.183,2.628,2.629v2.952C119.666,73.232,118.483,74.416,117.038,74.416z"/>
		</g>
		<g>
			<g>
				<g>
					<path fill="#334A5C" d="M74.3,82.957H23.282V30.86c0-2.968,2.407-5.375,5.375-5.375h40.268c2.968,0,5.375,2.406,5.375,5.375
						V82.957z"/>
					<rect x="24.756" y="34.776" fill="#FFFFFF" width="48.07" height="46.5"/>
					<g>
						<path fill="#FFD361" d="M30.49,28.635c0.788,1.036-0.382,2.206-1.418,1.417C28.284,29.017,29.454,27.847,30.49,28.635z"/>
						<g>
							<circle fill="#F15544" cx="26.854" cy="29.344" r="0.967"/>
							<path fill="#61C5B8" d="M33.416,28.635c0.79,1.036-0.382,2.206-1.417,1.417C31.21,29.017,32.38,27.847,33.416,28.635z"/>
						</g>
					</g>
					<path fill="#425C6E" d="M69.711,30.694h-32.22c-0.743,0-1.351-0.607-1.351-1.35l0,0c0-0.743,0.607-1.35,1.351-1.35h32.22
						c0.742,0,1.351,0.607,1.351,1.35l0,0C71.062,30.086,70.453,30.694,69.711,30.694z"/>
				</g>
				<g>
					<g>
						<defs>
							<circle id="SVGID_1_" cx="37.199" cy="48.298" r="9.061"/>
						</defs>
						<clipPath id="SVGID_2_">
							<use xlink:href="#SVGID_1_"  overflow="visible"/>
						</clipPath>
						<circle clip-path="url(#SVGID_2_)" fill="#61C5B8" cx="37.199" cy="48.298" r="9.061"/>
						<g clip-path="url(#SVGID_2_)">
							<g>
								<polygon fill="#F16667" points="37.198,48.298 45.234,36.544 29.591,38.579 								"/>
								<polygon fill="#FFFFFF" points="50.323,52.682 37.152,48.17 49.23,42.525 								"/>
							</g>
							<g>
								<polygon fill="#F15544" points="37.198,48.298 45.234,36.544 29.591,38.579 								"/>
								<polygon fill="#334A5C" points="50.323,52.682 37.198,48.298 45.234,36.544 								"/>
							</g>
						</g>
					</g>
					<g>
						<path fill="#F15544" d="M65.316,57.362h-0.713c-0.395,0-0.719-0.323-0.719-0.718v-8.232c0-0.395,0.324-0.718,0.719-0.718
							h0.713c0.394,0,0.717,0.323,0.717,0.718v8.232C66.033,57.039,65.71,57.362,65.316,57.362z"/>
						<g>
							<path fill="#334A5C" d="M61.9,57.362h-0.713c-0.395,0-0.717-0.323-0.717-0.718v-6.698c0-0.395,0.323-0.718,0.717-0.718H61.9
								c0.395,0,0.718,0.323,0.718,0.718v6.698C62.619,57.039,62.295,57.362,61.9,57.362z"/>
							<path fill="#61C5B8" d="M68.729,57.362h-0.713c-0.395,0-0.717-0.323-0.717-0.718V46.582c0-0.395,0.322-0.717,0.717-0.717
								h0.713c0.395,0,0.718,0.322,0.718,0.717v10.062C69.447,57.039,69.124,57.362,68.729,57.362z"/>
						</g>
					</g>
					<path fill="#CFCFCE" d="M66.594,38.534H56.495c-0.381,0-0.692,0.312-0.692,0.692v3.704c0,0.38,0.311,0.692,0.692,0.692h7.142
						c0.588,1.163,1.404,2.641,1.404,2.641v-2.641h1.553c0.38,0,0.692-0.312,0.692-0.692v-3.704
						C67.286,38.846,66.974,38.534,66.594,38.534z"/>
					<g>
						<g>
							<path fill="#CFCFCE" d="M57.987,55.699h-8.295c-0.229,0-0.415-0.187-0.415-0.415l0,0c0-0.229,0.187-0.417,0.415-0.417h8.295
								c0.229,0,0.416,0.188,0.416,0.417l0,0C58.403,55.512,58.217,55.699,57.987,55.699z"/>
							<path fill="#CFCFCE" d="M57.987,57.362h-8.295c-0.229,0-0.415-0.188-0.415-0.416l0,0c0-0.229,0.187-0.416,0.415-0.416h8.295
								c0.229,0,0.416,0.187,0.416,0.416l0,0C58.403,57.174,58.217,57.362,57.987,57.362z"/>
						</g>
						<g>
							<path fill="#CFCFCE" d="M57.987,52.61h-8.295c-0.229,0-0.415-0.188-0.415-0.416l0,0c0-0.228,0.187-0.415,0.415-0.415h8.295
								c0.229,0,0.416,0.188,0.416,0.415l0,0C58.403,52.423,58.217,52.61,57.987,52.61z"/>
							<path fill="#CFCFCE" d="M57.987,54.273h-8.295c-0.229,0-0.415-0.187-0.415-0.416l0,0c0-0.228,0.187-0.415,0.415-0.415h8.295
								c0.229,0,0.416,0.187,0.416,0.415l0,0C58.403,54.086,58.217,54.273,57.987,54.273z"/>
						</g>
					</g>
				</g>
				<g>
					<g>
						<circle fill="#61C5B8" cx="32.434" cy="63.754" r="1.022"/>
						<circle fill="#61C5B8" cx="36.523" cy="63.754" r="1.022"/>
						<circle fill="#61C5B8" cx="40.613" cy="63.754" r="1.022"/>
						<circle fill="#61C5B8" cx="44.702" cy="63.754" r="1.022"/>
						<circle fill="#61C5B8" cx="48.792" cy="63.754" r="1.022"/>
						<circle fill="#61C5B8" cx="52.881" cy="63.754" r="1.022"/>
						<circle fill="#61C5B8" cx="56.97" cy="63.754" r="1.022"/>
						<circle fill="#61C5B8" cx="61.06" cy="63.754" r="1.022"/>
						<circle fill="#CFCFCE" cx="65.148" cy="63.754" r="1.022"/>
					</g>
					<g>
						<circle fill="#F15544" cx="32.434" cy="67.888" r="1.022"/>
						<circle fill="#F15544" cx="36.523" cy="67.888" r="1.022"/>
						<circle fill="#F15544" cx="40.613" cy="67.888" r="1.022"/>
						<circle fill="#F15544" cx="44.702" cy="67.888" r="1.022"/>
						<circle fill="#F15544" cx="48.792" cy="67.888" r="1.022"/>
						<circle fill="#CFCFCE" cx="52.881" cy="67.888" r="1.022"/>
						<circle fill="#CFCFCE" cx="56.97" cy="67.888" r="1.022"/>
						<circle fill="#CFCFCE" cx="61.06" cy="67.888" r="1.022"/>
						<circle fill="#CFCFCE" cx="65.148" cy="67.888" r="1.022"/>
					</g>
					<g>
						<circle fill="#334A5C" cx="32.434" cy="72.022" r="1.022"/>
						<circle fill="#334A5C" cx="36.523" cy="72.022" r="1.022"/>
						<circle fill="#334A5C" cx="40.613" cy="72.022" r="1.022"/>
						<circle fill="#334A5C" cx="44.702" cy="72.022" r="1.022"/>
						<circle fill="#334A5C" cx="48.792" cy="72.022" r="1.022"/>
						<circle fill="#334A5C" cx="52.881" cy="72.022" r="1.022"/>
						<circle fill="#CFCFCE" cx="56.97" cy="72.022" r="1.022"/>
						<circle fill="#CFCFCE" cx="61.06" cy="72.022" r="1.022"/>
						<circle fill="#CFCFCE" cx="65.148" cy="72.022" r="1.022"/>
					</g>
					<g>
						<circle fill="#FFD361" cx="32.434" cy="76.156" r="1.022"/>
						<circle fill="#FFD361" cx="36.523" cy="76.156" r="1.022"/>
						<circle fill="#CFCFCE" cx="40.613" cy="76.156" r="1.022"/>
						<circle fill="#CFCFCE" cx="44.702" cy="76.156" r="1.022"/>
						<circle fill="#CFCFCE" cx="48.792" cy="76.156" r="1.022"/>
						<circle fill="#CFCFCE" cx="52.881" cy="76.156" r="1.022"/>
						<circle fill="#CFCFCE" cx="56.97" cy="76.156" r="1.022"/>
						<circle fill="#CFCFCE" cx="61.06" cy="76.156" r="1.022"/>
						<circle fill="#CFCFCE" cx="65.148" cy="76.156" r="1.022"/>
					</g>
				</g>
			</g>
			<g>
				<g>
					<path fill="#334A5C" d="M181.708,82.957h-51.016V30.86c0-2.968,2.406-5.375,5.375-5.375h40.268
						c2.968,0,5.373,2.406,5.373,5.375V82.957z"/>
					<rect x="132.165" y="34.776" fill="#FFFFFF" width="48.072" height="46.5"/>
					<g>
						<path fill="#FFD361" d="M137.898,28.635c0.789,1.036-0.381,2.206-1.416,1.417C135.692,29.017,136.862,27.847,137.898,28.635z"
							/>
						<g>
							<circle fill="#F15544" cx="134.262" cy="29.344" r="0.968"/>
							<path fill="#61C5B8" d="M140.826,28.635c0.788,1.036-0.382,2.206-1.418,1.417C138.621,29.017,139.79,27.847,140.826,28.635z"
								/>
						</g>
					</g>
					<path fill="#425C6E" d="M177.121,30.694h-32.222c-0.741,0-1.349-0.607-1.349-1.35l0,0c0-0.743,0.607-1.35,1.349-1.35h32.222
						c0.743,0,1.349,0.607,1.349,1.35l0,0C178.469,30.086,177.864,30.694,177.121,30.694z"/>
				</g>
				<g>
					<path fill="#F15544" d="M144.458,68.642v7.308c0,0.623-0.51,1.133-1.134,1.133h-0.61c-0.623,0-1.134-0.511-1.134-1.133v-7.308
						c0-0.624,0.511-1.134,1.134-1.134h0.61C143.949,67.508,144.458,68.018,144.458,68.642z"/>
					<path fill="#334A5C" d="M148.852,62.906v13.043c0,0.623-0.51,1.133-1.135,1.133h-0.608c-0.625,0-1.135-0.511-1.135-1.133
						V62.907c0-0.625,0.51-1.134,1.135-1.134h0.608C148.342,61.773,148.852,62.283,148.852,62.906z"/>
					<path fill="#F15544" d="M153.246,66.408v9.541c0,0.623-0.51,1.133-1.133,1.133h-0.611c-0.623,0-1.134-0.511-1.134-1.133v-9.541
						c0-0.623,0.511-1.133,1.134-1.133h0.611C152.736,65.275,153.246,65.785,153.246,66.408z"/>
					<path fill="#334A5C" d="M157.64,61.173v14.776c0,0.623-0.511,1.133-1.135,1.133h-0.611c-0.623,0-1.133-0.511-1.133-1.133
						V61.173c0-0.624,0.51-1.134,1.133-1.134h0.611C157.129,60.039,157.64,60.549,157.64,61.173z"/>
					<path fill="#F15544" d="M162.032,62.84v13.109c0,0.623-0.51,1.133-1.132,1.133h-0.61c-0.624,0-1.135-0.511-1.135-1.133V62.84
						c0-0.624,0.511-1.134,1.135-1.134h0.61C161.522,61.706,162.032,62.216,162.032,62.84z"/>
					<path fill="#334A5C" d="M166.426,57.905v18.044c0,0.623-0.51,1.133-1.134,1.133h-0.609c-0.625,0-1.135-0.511-1.135-1.133
						V57.905c0-0.623,0.51-1.133,1.135-1.133h0.609C165.917,56.771,166.426,57.282,166.426,57.905z"/>
					<path fill="#F15544" d="M170.821,56.171v19.778c0,0.623-0.51,1.133-1.134,1.133h-0.61c-0.625,0-1.134-0.511-1.134-1.133V56.171
						c0-0.623,0.509-1.133,1.134-1.133h0.61C170.311,55.038,170.821,55.548,170.821,56.171z"/>
				</g>
				<g>
					<g>
						<circle fill="#CFCFCE" cx="138.176" cy="42.785" r="3.761"/>
						<path fill="#F15544" d="M138.187,43.122v-5.077c-2.568,0-4.649,2.082-4.649,4.65c0,2.568,2.081,4.65,4.649,4.65
							c2.424,0,4.413-1.855,4.628-4.223H138.187z"/>
					</g>
					<g>
						<circle fill="#CFCFCE" cx="150.485" cy="42.785" r="3.762"/>
						<path fill="#334A5C" d="M150.497,38.045c-2.568,0-4.651,2.082-4.651,4.65c0,2.568,2.083,4.65,4.651,4.65V38.045z"/>
					</g>
					<g>
						<circle fill="#CFCFCE" cx="162.793" cy="42.785" r="3.76"/>
						<path fill="#61C5B8" d="M159.517,45.983l3.287-3.288v-4.65c-2.567,0-4.649,2.082-4.649,4.65
							C158.155,43.979,158.675,45.142,159.517,45.983z"/>
					</g>
					<g>
						<circle fill="#CFCFCE" cx="175.104" cy="42.785" r="3.761"/>
						<path fill="#FFD361" d="M175.113,38.045c-1.284,0-2.446,0.521-3.287,1.362l3.287,3.288V38.045z"/>
					</g>
				</g>
				<g>
					<path fill="#CFCFCE" d="M157.261,52.875h-22.944c-0.186,0-0.336-0.151-0.336-0.336l0,0c0-0.185,0.15-0.336,0.336-0.336h22.944
						c0.185,0,0.337,0.151,0.337,0.336l0,0C157.598,52.723,157.446,52.875,157.261,52.875z"/>
					<path fill="#CFCFCE" d="M157.261,54.22h-22.944c-0.186,0-0.336-0.151-0.336-0.336l0,0c0-0.185,0.15-0.336,0.336-0.336h22.944
						c0.185,0,0.337,0.151,0.337,0.336l0,0C157.598,54.068,157.446,54.22,157.261,54.22z"/>
				</g>
			</g>
		</g>
	</g>
</g>
<g>
	<circle fill="#EDEDED" cx="72.425" cy="91.336" r="31.882"/>
	<circle fill="#F4F4F4" cx="75.332" cy="91.166" r="24.396"/>
	<circle fill="#FFFFFF" cx="81.974" cy="90.776" r="11.014"/>
</g>
<path fill="#29B29E" d="M35.933,136.305l-6.475-5.931c-0.822-0.752-0.867-2.03-0.102-2.838l17.151-18.113
	c0.742-0.782,1.997-0.827,2.793-0.099l6.476,5.931c0.82,0.752,0.867,2.028,0.101,2.838l-17.153,18.113
	C37.984,136.988,36.728,137.034,35.933,136.305z"/>
<g>
	<defs>
		<path id="SVGID_3_" d="M34.7,137.607l-6.475-5.931c-0.822-0.753-0.867-2.03-0.102-2.838l17.151-18.113
			c0.742-0.783,1.999-0.827,2.793-0.099l6.475,5.931c0.822,0.752,0.867,2.028,0.1,2.838l-17.151,18.113
			C36.751,138.292,35.495,138.335,34.7,137.607z"/>
	</defs>
	<clipPath id="SVGID_4_">
		<use xlink:href="#SVGID_3_"  overflow="visible"/>
	</clipPath>
	<path clip-path="url(#SVGID_4_)" fill="#20917E" d="M94.977,67.631c-14.041-12.86-36.048-12.067-49.153,1.772
		c-13.105,13.84-12.346,35.484,1.695,48.344c14.041,12.86,36.047,12.068,49.153-1.771C109.777,102.134,109.017,80.491,94.977,67.631
		z M54.298,110.588c-10.03-9.187-10.572-24.646-1.21-34.533c9.361-9.885,25.08-10.452,35.108-1.266
		c10.03,9.186,10.571,24.647,1.21,34.532C80.046,119.208,64.328,119.773,54.298,110.588z"/>
</g>
<polygon fill="#29B29E" points="22.057,158.286 8.101,145.503 23.022,129.748 36.978,142.529 "/>
<path fill="#62C5B8" d="M0.623,153.401c-0.863,0.911-0.824,2.34,0.085,3.174l10.647,9.751c0.909,0.834,2.36,0.771,3.224-0.143
	l7.478-7.897L8.101,145.503L0.623,153.401z"/>
<path fill="#62C5B8" d="M44.226,131.613l-10.646-9.752c-0.911-0.833-2.35-0.782-3.199,0.114l-7.358,7.772l13.955,12.781l7.358-7.77
	C45.186,133.863,45.137,132.445,44.226,131.613z"/>
<polygon fill="#20917E" points="36.704,142.818 22.748,130.036 23.022,129.748 36.978,142.529 "/>
<polygon fill="#20917E" points="21.98,158.367 8.025,145.584 8.298,145.296 22.254,158.078 "/>
<path fill="#62C5B8" d="M96.154,66.278c-14.041-12.86-36.048-12.066-49.153,1.772c-13.105,13.839-12.346,35.484,1.694,48.345
	c14.042,12.86,36.049,12.067,49.153-1.772C110.954,100.784,110.195,79.138,96.154,66.278z M66.757,118.958
	c-15.255-3.13-25.084-18.034-21.954-33.289c3.131-15.254,18.036-25.083,33.291-21.954c15.255,3.13,25.083,18.035,21.953,33.291
	C96.916,112.26,82.012,122.088,66.757,118.958z"/>
<path fill="#20917E" d="M52.742,112.124c-11.629-10.651-12.259-28.641-1.405-40.103c10.854-11.46,29.143-12.121,40.771-1.47
	c11.628,10.65,12.259,28.639,1.405,40.101C82.661,122.113,64.37,122.773,52.742,112.124z M91.179,71.532
	c-11.08-10.148-28.507-9.519-38.847,1.401c-10.341,10.92-9.74,28.061,1.339,38.208c11.08,10.147,28.506,9.52,38.847-1.402
	C102.859,98.82,102.259,81.68,91.179,71.532z"/>
</svg>
